# Blender v2.82 (sub 7) OBJ File: 'map.blend'
# www.blender.org
mtllib pillar.mtl
o pillar_Cube.001
v -1.000000 0.030000 -1.000000
v -1.000000 0.030000 1.000000
v 1.000000 0.030000 -1.000000
v 1.000000 0.030000 1.000000
v -0.821855 0.263571 0.973337
v -0.803039 0.324703 0.965041
v -0.856127 0.324347 0.943281
v -0.878999 0.266888 0.950053
v -0.943281 0.324347 0.856127
v -0.965041 0.324703 0.803039
v -0.973337 0.263571 0.821855
v -0.950053 0.266888 0.878999
v -0.943950 0.068262 0.995888
v -0.966150 0.127478 0.966150
v -0.995888 0.068262 0.943950
v -1.001742 0.006848 1.001742
v -0.614607 1.872160 0.701760
v -0.561630 1.871804 0.723632
v -0.554211 1.922351 0.695438
v -0.609530 1.924903 0.667757
v -0.541592 2.009936 0.593126
v -0.538836 2.030000 0.538836
v -0.593126 2.009936 0.541592
v -0.601337 1.981763 0.601337
v -0.701760 1.872160 0.614607
v -0.667757 1.924903 0.609530
v -0.695438 1.922351 0.554211
v -0.723632 1.871804 0.561630
v -0.856127 0.324347 -0.943281
v -0.803039 0.324703 -0.965041
v -0.821855 0.263571 -0.973337
v -0.878999 0.266888 -0.950053
v -0.943950 0.068262 -0.995888
v -1.001742 0.006848 -1.001742
v -0.995888 0.068262 -0.943950
v -0.966150 0.127478 -0.966150
v -0.943281 0.324347 -0.856127
v -0.950053 0.266888 -0.878999
v -0.973337 0.263571 -0.821855
v -0.965041 0.324703 -0.803039
v -0.593126 2.009936 -0.541592
v -0.538836 2.030000 -0.538836
v -0.541592 2.009936 -0.593126
v -0.601337 1.981763 -0.601337
v -0.554211 1.922351 -0.695438
v -0.561630 1.871804 -0.723632
v -0.614607 1.872160 -0.701760
v -0.609530 1.924903 -0.667757
v -0.695438 1.922351 -0.554211
v -0.667757 1.924903 -0.609530
v -0.701760 1.872160 -0.614607
v -0.723632 1.871804 -0.561630
v 0.856127 0.324347 0.943281
v 0.803039 0.324703 0.965041
v 0.821855 0.263571 0.973337
v 0.878999 0.266888 0.950053
v 0.943950 0.068262 0.995888
v 1.001742 0.006848 1.001742
v 0.995888 0.068262 0.943950
v 0.966150 0.127478 0.966150
v 0.943281 0.324347 0.856127
v 0.950053 0.266888 0.878999
v 0.973337 0.263571 0.821855
v 0.965041 0.324703 0.803039
v 0.593126 2.009936 0.541592
v 0.538836 2.030000 0.538836
v 0.541592 2.009936 0.593126
v 0.601337 1.981763 0.601337
v 0.554211 1.922351 0.695438
v 0.561630 1.871804 0.723632
v 0.614607 1.872160 0.701760
v 0.609530 1.924903 0.667757
v 0.695438 1.922351 0.554211
v 0.667757 1.924903 0.609530
v 0.701760 1.872160 0.614607
v 0.723632 1.871804 0.561630
v 0.943281 0.324347 -0.856127
v 0.965041 0.324703 -0.803039
v 0.973337 0.263571 -0.821855
v 0.950053 0.266888 -0.878999
v 0.995888 0.068262 -0.943950
v 1.001742 0.006848 -1.001742
v 0.943950 0.068262 -0.995888
v 0.966150 0.127478 -0.966150
v 0.856127 0.324347 -0.943281
v 0.878999 0.266888 -0.950053
v 0.821855 0.263571 -0.973337
v 0.803039 0.324703 -0.965041
v 0.541592 2.009936 -0.593126
v 0.538836 2.030000 -0.538836
v 0.593126 2.009936 -0.541592
v 0.601337 1.981763 -0.601337
v 0.695438 1.922351 -0.554211
v 0.723632 1.871804 -0.561630
v 0.701760 1.872160 -0.614607
v 0.667757 1.924903 -0.609530
v 0.554211 1.922351 -0.695438
v 0.609530 1.924903 -0.667757
v 0.614607 1.872160 -0.701760
v 0.561630 1.871804 -0.723632
vt 0.763176 0.502971
vt 0.507136 0.502971
vt 0.506910 0.506717
vt 0.763402 0.506717
vt 0.746560 0.853390
vt 0.748084 0.846862
vt 0.757271 0.852461
vt 0.742228 0.554703
vt 0.736001 0.808007
vt 0.540900 0.808007
vt 0.528085 0.554703
vt 0.525173 0.817302
vt 0.525847 0.826612
vt 0.515251 0.818721
vt 0.004162 0.503515
vt 0.495838 0.503515
vt 0.495838 0.996485
vt 0.004162 0.996485
vt 0.513525 0.512937
vt 0.756787 0.512937
vt 0.743926 0.544724
vt 0.526387 0.544724
vt 0.744992 0.808597
vt 0.749590 0.555176
vt 0.761645 0.557299
vt 0.759816 0.810720
vt 0.525506 0.859741
vt 0.525506 0.982626
vt 0.509006 0.984058
vt 0.509006 0.858310
vt 0.763176 0.502971
vt 0.507136 0.502971
vt 0.506910 0.506717
vt 0.763402 0.506717
vt 0.520723 0.555176
vt 0.525320 0.808597
vt 0.510497 0.810720
vt 0.508668 0.557299
vt 0.534516 0.985209
vt 0.736139 0.985209
vt 0.738488 0.991695
vt 0.532167 0.991695
vt 0.742228 0.554703
vt 0.736001 0.808007
vt 0.540900 0.808007
vt 0.528085 0.554703
vt 0.736139 0.854250
vt 0.534516 0.854250
vt 0.532167 0.844194
vt 0.738488 0.844194
vt 0.513525 0.512937
vt 0.756787 0.512937
vt 0.743926 0.544724
vt 0.526387 0.544724
vt 0.744992 0.808597
vt 0.749590 0.555176
vt 0.761645 0.557299
vt 0.759816 0.810720
vt 0.524095 0.853390
vt 0.513384 0.852461
vt 0.522570 0.846862
vt 0.742228 0.554703
vt 0.736001 0.808007
vt 0.540900 0.808007
vt 0.528085 0.554703
vt 0.751750 0.548042
vt 0.761616 0.536682
vt 0.761555 0.549773
vt 0.744992 0.808597
vt 0.749590 0.555176
vt 0.761645 0.557299
vt 0.759816 0.810720
vt 0.751750 0.548042
vt 0.761616 0.536682
vt 0.761555 0.549773
vt 0.524095 0.985764
vt 0.522570 0.989974
vt 0.513384 0.986363
vt 0.751750 0.548042
vt 0.761616 0.536682
vt 0.761555 0.549773
vt 0.745149 0.982626
vt 0.745149 0.859741
vt 0.761649 0.858310
vt 0.761649 0.984058
vt 0.742228 0.554703
vt 0.736001 0.808007
vt 0.540900 0.808007
vt 0.528085 0.554703
vt 0.763176 0.502971
vt 0.507136 0.502971
vt 0.506910 0.506717
vt 0.763402 0.506717
vt 0.763176 0.502971
vt 0.507136 0.502971
vt 0.506910 0.506717
vt 0.763402 0.506717
vt 0.518562 0.548042
vt 0.508757 0.549773
vt 0.508696 0.536682
vt 0.513525 0.512937
vt 0.756787 0.512937
vt 0.743926 0.544724
vt 0.526387 0.544724
vt 0.526387 0.544724
vt 0.528438 0.549712
vt 0.523657 0.549712
vt 0.521320 0.543911
vt 0.505635 0.558649
vt 0.505609 0.552898
vt 0.509730 0.552170
vt 0.513525 0.512937
vt 0.512179 0.521221
vt 0.508665 0.512500
vt 0.506831 0.507949
vt 0.739943 0.813518
vt 0.750237 0.813689
vt 0.743737 0.817919
vt 0.737555 0.818803
vt 0.735626 0.983724
vt 0.741369 0.983724
vt 0.742378 0.986510
vt 0.741607 0.815642
vt 0.744120 0.820222
vt 0.737938 0.821106
vt 0.737918 0.816875
vt 0.746536 0.555463
vt 0.746656 0.549712
vt 0.750777 0.550439
vt 0.763481 0.507949
vt 0.761648 0.512500
vt 0.758134 0.521221
vt 0.760582 0.552170
vt 0.764704 0.552898
vt 0.764677 0.558649
vt 0.735626 0.860054
vt 0.738453 0.818355
vt 0.739834 0.816052
vt 0.744759 0.816052
vt 0.743868 0.819866
vt 0.741190 0.818937
vt 0.738711 0.815637
vt 0.744970 0.815094
vt 0.751558 0.818096
vt 0.746536 0.555463
vt 0.746656 0.549712
vt 0.750777 0.550439
vt 0.756787 0.512937
vt 0.763481 0.507949
vt 0.761648 0.512500
vt 0.758134 0.521221
vt 0.760582 0.552170
vt 0.764704 0.552898
vt 0.764677 0.558649
vt 0.525506 0.981668
vt 0.535029 0.981466
vt 0.745067 0.815287
vt 0.743686 0.816046
vt 0.738761 0.816046
vt 0.739652 0.814789
vt 0.743315 0.815655
vt 0.745793 0.817783
vt 0.739535 0.818134
vt 0.746123 0.816198
vt 0.746536 0.555463
vt 0.746656 0.549712
vt 0.750777 0.550439
vt 0.763481 0.507949
vt 0.761648 0.512500
vt 0.758134 0.521221
vt 0.760582 0.552170
vt 0.764704 0.552898
vt 0.764677 0.558649
vt 0.535029 0.860054
vt 0.743315 0.818937
vt 0.739535 0.818096
vt 0.739535 0.815094
vt 0.745793 0.815637
vt 0.745067 0.816879
vt 0.739652 0.818389
vt 0.738761 0.814575
vt 0.750275 0.814575
vt 0.758134 0.521221
vt 0.748993 0.543911
vt 0.743903 0.990721
vt 0.759171 0.987358
vt 0.748459 0.986429
vt 0.748993 0.543911
vt 0.521320 0.543911
vt 0.512179 0.521221
vt 0.757303 0.815300
vt 0.747381 0.813882
vt 0.743926 0.544724
vt 0.748993 0.543911
vt 0.521320 0.543911
vt 0.512179 0.521221
vt 0.509006 0.982591
vt 0.757303 0.815300
vt 0.747381 0.813882
vt 0.748993 0.543911
vt 0.521320 0.543911
vt 0.512179 0.521221
vt 0.757303 0.815300
vt 0.747381 0.813882
vt 0.746553 0.554644
vt 0.741301 0.808065
vt 0.735626 0.982313
vt 0.735090 0.812998
vt 0.535223 0.812998
vt 0.529012 0.808065
vt 0.523759 0.554644
vt 0.735090 0.812998
vt 0.535223 0.812998
vt 0.529012 0.808065
vt 0.523759 0.554644
vt 0.535029 0.982313
vt 0.735090 0.812998
vt 0.535223 0.812998
vt 0.529012 0.808065
vt 0.523759 0.554644
vt 0.735626 0.981466
vt 0.735090 0.812998
vt 0.535223 0.812998
vn -0.2974 0.9072 -0.2974
vn 0.2974 0.9072 -0.2974
vn 0.5567 -0.6166 -0.5567
vn -0.5567 -0.6166 -0.5567
vn -0.4426 0.7798 -0.4426
vn -0.4490 0.6116 -0.6514
vn -0.6514 0.6116 -0.4490
vn 0.9668 0.1824 -0.1790
vn 0.9222 0.3421 -0.1803
vn 0.9222 0.3421 0.1803
vn 0.9668 0.1824 0.1790
vn -0.4490 0.6116 0.6514
vn -0.4426 0.7798 0.4426
vn -0.6514 0.6116 0.4490
vn 0.5567 -0.6166 0.5567
vn -0.5567 -0.6166 0.5567
vn 0.2782 0.2398 -0.9301
vn -0.2782 0.2398 -0.9301
vn -0.1660 0.1946 -0.9667
vn 0.1660 0.1946 -0.9667
vn -0.5113 0.3539 -0.7831
vn -0.5228 0.2525 -0.8141
vn -0.8141 0.2525 -0.5228
vn -0.7831 0.3539 -0.5113
vn 0.4855 0.8603 -0.1554
vn 0.4855 0.8603 0.1554
vn 0.7600 0.6309 0.1559
vn 0.7600 0.6309 -0.1559
vn 0.2974 0.9072 0.2974
vn -0.5228 0.2525 0.8141
vn -0.5113 0.3539 0.7831
vn -0.7831 0.3539 0.5113
vn -0.8141 0.2525 0.5228
vn 0.1554 0.8603 0.4855
vn -0.1554 0.8603 0.4855
vn -0.1559 0.6309 0.7600
vn 0.1559 0.6309 0.7600
vn -0.1790 0.1824 -0.9668
vn -0.1803 0.3421 -0.9222
vn 0.1803 0.3421 -0.9222
vn 0.1790 0.1824 -0.9668
vn -0.1554 0.8603 -0.4855
vn 0.1554 0.8603 -0.4855
vn 0.1559 0.6309 -0.7600
vn -0.1559 0.6309 -0.7600
vn 0.9301 0.2398 0.2782
vn 0.9301 0.2398 -0.2782
vn 0.9667 0.1946 -0.1660
vn 0.9667 0.1946 0.1660
vn 0.7831 0.3539 -0.5113
vn 0.8141 0.2525 -0.5228
vn 0.5228 0.2525 -0.8141
vn 0.5113 0.3539 -0.7831
vn 0.4426 0.7798 -0.4426
vn 0.6514 0.6116 -0.4490
vn 0.4490 0.6116 -0.6514
vn 0.1790 0.1824 0.9668
vn 0.1803 0.3421 0.9222
vn -0.1803 0.3421 0.9222
vn -0.1790 0.1824 0.9668
vn -0.5031 0.3448 -0.7924
vn -0.6587 0.3638 -0.6587
vn -0.7924 0.3448 -0.5031
vn 0.5113 0.3539 0.7831
vn 0.5228 0.2525 0.8141
vn 0.8141 0.2525 0.5228
vn 0.7831 0.3539 0.5113
vn 0.7924 0.3448 -0.5031
vn 0.6587 0.3638 -0.6587
vn 0.5031 0.3448 -0.7924
vn 0.4426 0.7798 0.4426
vn 0.4490 0.6116 0.6514
vn 0.6514 0.6116 0.4490
vn 0.5031 0.3448 0.7924
vn 0.6587 0.3638 0.6587
vn 0.7924 0.3448 0.5031
vn -0.4855 0.8603 0.1554
vn -0.4855 0.8603 -0.1554
vn -0.7600 0.6309 -0.1559
vn -0.7600 0.6309 0.1559
vn -0.9668 0.1824 0.1790
vn -0.9222 0.3421 0.1803
vn -0.9222 0.3421 -0.1803
vn -0.9668 0.1824 -0.1790
vn -0.2974 0.9072 0.2974
vn -0.5031 0.3448 0.7924
vn -0.7924 0.3448 0.5031
vn -0.6587 0.3638 0.6587
vn -0.9301 0.2398 -0.2782
vn -0.9301 0.2398 0.2782
vn -0.9667 0.1946 0.1660
vn -0.9667 0.1946 -0.1660
vn -0.1660 0.1946 0.9667
vn -0.2782 0.2398 0.9301
vn -0.1709 0.9703 0.1709
vn -0.1709 0.9703 -0.1709
vn 0.1660 0.1946 0.9667
vn 0.2782 0.2398 0.9301
vn 0.1709 0.9703 0.1709
vn 0.1709 0.9703 -0.1709
usemtl map_tex
s 1
f 58/1/1 16/2/2 2/3/3 4/4/4
f 44/5/5 48/6/6 50/7/7
f 78/8/8 94/9/9 76/10/10 64/11/11
f 20/12/12 24/13/13 26/14/14
f 1/15/15 3/16/16 4/17/4 2/18/3
f 83/19/17 33/20/18 31/21/19 87/22/20
f 47/23/21 29/24/22 37/25/23 51/26/24
f 91/27/25 65/28/26 73/29/27 93/30/28
f 16/31/2 34/32/29 1/33/15 2/34/3
f 7/35/30 17/36/31 25/37/32 9/38/33
f 67/39/34 21/40/35 19/41/36 69/42/37
f 30/43/38 46/44/39 100/45/40 88/46/41
f 43/47/42 89/48/43 97/49/44 45/50/45
f 59/51/46 81/52/47 79/53/48 63/54/49
f 95/55/50 77/56/51 85/57/52 99/58/53
f 92/59/54 96/60/55 98/61/56
f 54/62/57 70/63/58 18/64/59 6/65/60
f 32/66/61 36/67/62 38/68/63
f 71/69/64 53/70/65 61/71/66 75/72/67
f 80/73/68 84/74/69 86/75/70
f 68/76/71 72/77/72 74/78/73
f 56/79/74 60/80/75 62/81/76
f 23/82/77 41/83/78 49/84/79 27/85/80
f 10/86/81 28/87/82 52/88/83 40/89/84
f 34/90/29 82/91/85 3/92/16 1/93/15
f 82/94/85 58/95/1 4/96/4 3/97/16
f 8/98/86 12/99/87 14/100/88
f 35/101/89 15/102/90 11/103/91 39/104/92
f 5/105/93 6/106/60 7/107/30 8/108/86
f 9/38/33 10/109/81 11/110/91 12/111/87
f 13/112/94 14/113/88 15/114/90 16/115/2
f 17/116/31 18/117/59 19/118/36 20/119/12
f 21/40/35 22/120/95 23/121/77 24/122/13
f 25/123/32 26/124/14 27/125/80 28/126/82
f 29/24/22 30/127/38 31/128/19 32/129/61
f 33/20/18 34/130/29 35/131/89 36/132/62
f 37/25/23 38/133/63 39/134/92 40/135/84
f 41/83/78 42/136/96 43/47/42 44/5/5
f 45/137/45 46/138/39 47/139/21 48/140/6
f 49/141/79 50/142/7 51/143/24 52/144/83
f 53/70/65 54/145/57 55/146/97 56/147/74
f 57/148/98 58/149/1 59/150/46 60/151/75
f 61/71/66 62/152/76 63/153/49 64/154/11
f 65/155/26 66/156/99 67/39/34 68/76/71
f 69/157/37 70/158/58 71/159/64 72/160/72
f 73/161/27 74/162/73 75/163/67 76/164/10
f 77/56/51 78/165/8 79/166/48 80/167/68
f 81/52/47 82/168/85 83/169/17 84/170/69
f 85/57/52 86/171/70 87/172/20 88/173/41
f 89/48/43 90/174/100 91/27/25 92/59/54
f 93/175/28 94/176/9 95/177/50 96/178/55
f 97/179/44 98/180/56 99/181/53 100/182/40
f 13/112/94 5/105/93 8/108/86 14/113/88
f 7/35/30 9/38/33 12/99/87 8/98/86
f 11/103/91 15/102/90 14/183/88 12/184/87
f 25/37/32 17/36/31 20/12/12 26/14/14
f 19/41/36 21/40/35 24/122/13 20/185/12
f 23/82/77 27/85/80 26/186/14 24/187/13
f 37/25/23 29/24/22 32/66/61 38/68/63
f 31/21/19 33/20/18 36/132/62 32/188/61
f 35/101/89 39/104/92 38/189/63 36/190/62
f 49/84/79 41/83/78 44/5/5 50/7/7
f 43/47/42 45/50/45 48/6/6 44/5/5
f 47/23/21 51/26/24 50/191/7 48/192/6
f 61/71/66 53/70/65 56/79/74 62/81/76
f 55/193/97 57/148/98 60/151/75 56/194/74
f 59/51/46 63/54/49 62/195/76 60/196/75
f 73/197/27 65/155/26 68/76/71 74/78/73
f 67/39/34 69/42/37 72/77/72 68/76/71
f 71/69/64 75/72/67 74/198/73 72/199/72
f 85/57/52 77/56/51 80/73/68 86/75/70
f 79/53/48 81/52/47 84/170/69 80/200/68
f 83/19/17 87/22/20 86/201/70 84/202/69
f 97/49/44 89/48/43 92/59/54 98/61/56
f 91/27/25 93/30/28 96/60/55 92/59/54
f 95/55/50 99/58/53 98/203/56 96/204/55
f 6/65/60 18/64/59 17/36/31 7/35/30
f 28/87/82 10/86/81 9/205/33 25/206/32
f 22/207/95 42/136/96 41/83/78 23/82/77
f 52/88/83 28/87/82 27/208/80 49/209/79
f 46/44/39 30/43/38 29/24/22 47/23/21
f 40/89/84 52/88/83 51/210/24 37/211/23
f 42/136/96 90/174/100 89/48/43 43/47/42
f 100/45/40 46/44/39 45/212/45 97/213/44
f 94/9/9 78/8/8 77/56/51 95/55/50
f 88/46/41 100/45/40 99/214/53 85/215/52
f 90/174/100 66/216/99 65/28/26 91/27/25
f 76/10/10 94/9/9 93/217/28 73/218/27
f 70/63/58 54/62/57 53/70/65 71/69/64
f 64/11/11 76/10/10 75/219/67 61/220/66
f 66/156/99 22/221/95 21/40/35 67/39/34
f 18/64/59 70/63/58 69/222/37 19/223/36
f 34/32/29 16/31/2 15/102/90 35/101/89
f 10/86/81 40/89/84 39/104/92 11/103/91
f 82/91/85 34/90/29 33/20/18 83/19/17
f 30/43/38 88/46/41 87/22/20 31/21/19
f 58/95/1 82/94/85 81/52/47 59/51/46
f 78/8/8 64/11/11 63/54/49 79/53/48
f 16/2/2 58/1/1 57/148/98 13/112/94
f 54/62/57 6/65/60 5/105/93 55/193/97
f 13/112/94 57/148/98 55/193/97 5/105/93
f 42/136/96 22/207/95 66/216/99 90/174/100
