# Blender v2.82 (sub 7) OBJ File: 'map.blend'
# www.blender.org
mtllib wall.mtl
o wall_Cube
v -0.905133 0.000000 1.000000
v -1.000000 0.000000 0.887392
v -0.972214 0.000000 0.967018
v -0.905133 1.920079 -0.227953
v -0.905133 2.000000 -0.373931
v -1.000000 1.905133 -0.331002
v -0.905133 1.979687 -0.290186
v -0.959905 1.963063 -0.299287
v -0.972214 1.969119 -0.363053
v -0.972214 1.912606 -0.259830
v -1.000000 0.000000 -0.905133
v -0.905133 0.000000 -1.000000
v -0.972214 0.000000 -0.972214
v -0.905133 2.000000 -0.905133
v -0.905133 1.905133 -1.000000
v -1.000000 1.905133 -0.905133
v -0.905133 1.972214 -0.972214
v -0.959905 1.959905 -0.959905
v -0.972214 1.905133 -0.972214
v -0.972214 1.972214 -0.905133
v 1.000000 0.000000 0.887392
v 0.905133 0.000000 1.000000
v 0.972214 0.000000 0.967018
v 0.905133 2.000000 -0.373931
v 0.905133 1.920079 -0.227953
v 1.000000 1.905133 -0.331002
v 0.905133 1.979687 -0.290186
v 0.959905 1.963063 -0.299287
v 0.972214 1.912606 -0.259830
v 0.972214 1.969119 -0.363053
v 0.905133 0.000000 -1.000000
v 1.000000 0.000000 -0.905133
v 0.972214 0.000000 -0.972214
v 0.905133 2.000000 -0.905133
v 1.000000 1.905133 -0.905133
v 0.905133 1.905133 -1.000000
v 0.972214 1.972214 -0.905133
v 0.959905 1.959905 -0.959905
v 0.972214 1.905133 -0.972214
v 0.905133 1.972214 -0.972214
vt 0.152786 0.089985
vt 0.152786 0.227371
vt 0.007806 0.227371
vt 0.007806 0.089985
vt 0.152470 0.089785
vt 0.141726 0.226236
vt 0.019855 0.226236
vt 0.009554 0.089785
vt 0.435727 0.493448
vt 0.435727 0.392470
vt 0.484185 0.392470
vt 0.484185 0.493448
vt 0.151055 0.089785
vt 0.140754 0.226236
vt 0.018883 0.226236
vt 0.008140 0.089785
vt 0.153093 0.089785
vt 0.153093 0.226236
vt 0.008762 0.226236
vt 0.008763 0.089785
vt 0.360674 0.389080
vt 0.360674 0.394037
vt 0.358984 0.394037
vt 0.357747 0.389649
vt 0.485177 0.387178
vt 0.490994 0.387178
vt 0.492839 0.392470
vt 0.412922 0.388153
vt 0.420383 0.389649
vt 0.420383 0.392981
vt 0.413194 0.394037
vt 0.427073 0.392470
vt 0.427073 0.389415
vt 0.435727 0.387178
vt 0.417434 0.388153
vt 0.420361 0.388153
vt 0.420361 0.391550
vt 0.417434 0.394037
vt 0.365760 0.388153
vt 0.366796 0.394037
vt 0.362108 0.394037
vt 0.358676 0.388153
vt 0.492839 0.493448
vt 0.492224 0.498311
vt 0.485177 0.498739
vt 0.416527 0.389080
vt 0.419454 0.389649
vt 0.420031 0.394514
vt 0.416527 0.394037
vt 0.366841 0.388153
vt 0.366569 0.394037
vt 0.359957 0.394514
vt 0.359380 0.389649
vt 0.435727 0.498739
vt 0.427852 0.499485
vt 0.427073 0.493448
vt 0.414003 0.388153
vt 0.421087 0.388153
vt 0.420356 0.393208
vt 0.412967 0.394037
vt 0.361581 0.388153
vt 0.361581 0.394037
vt 0.357923 0.393208
vt 0.358654 0.388153
vt 0.025799 0.090246
vt 0.008879 0.226586
vt 0.001259 0.226301
vt 0.018128 0.090373
vt 0.150543 0.090189
vt 0.159309 0.227014
vt 0.139959 0.226523
vt 0.141515 0.089694
vt 0.160653 0.089960
vt 0.160656 0.226236
vt 0.000576 0.226236
vt 0.000573 0.089960
vt 0.159295 0.089122
vt 0.160033 0.226236
vt 0.001199 0.226236
vt 0.000460 0.089122
vt 0.077540 0.227371
vt 0.077540 0.089985
vt 0.093443 0.090036
vt 0.091791 0.228027
vt 0.080410 0.227963
vt 0.081287 0.089837
vt 0.089388 0.089785
vt 0.099689 0.226236
vt 0.012950 0.739079
vt 0.240897 0.500615
vt 0.023749 0.728280
vt 0.229820 0.728280
vt 0.239565 0.729334
vt 0.240619 0.739079
vt 0.240619 0.943130
vt 0.240701 0.954697
vt 0.229820 0.955949
vt 0.023749 0.955949
vt 0.016113 0.952195
vt 0.012950 0.943130
vn 0.1986 -0.4400 0.8758
vn 0.1920 0.6135 0.7660
vn -0.1920 0.6135 0.7660
vn -0.1986 -0.4400 0.8758
vn 0.7319 -0.6657 -0.1456
vn 0.9669 0.1815 -0.1791
vn 0.9592 0.2477 0.1358
vn 0.7666 -0.6162 0.1805
vn 0.1843 0.9664 -0.1789
vn -0.1843 0.9664 -0.1789
vn -0.1920 0.9758 0.1046
vn 0.1920 0.9758 0.1046
vn -0.7666 -0.6162 0.1805
vn -0.9592 0.2477 0.1358
vn -0.9669 0.1815 -0.1791
vn -0.7319 -0.6657 -0.1456
vn -0.1456 -0.6657 -0.7319
vn -0.1794 0.1794 -0.9673
vn 0.1794 0.1794 -0.9673
vn 0.1456 -0.6657 -0.7319
vn -0.1816 0.8625 0.4722
vn -0.5829 0.7127 0.3902
vn -0.6940 0.4714 0.5442
vn -0.6942 0.7121 0.1046
vn -0.1726 0.6965 -0.6965
vn -0.5773 0.5773 -0.5773
vn -0.6983 0.6950 -0.1711
vn -0.6965 0.1726 -0.6965
vn 0.1816 0.8625 0.4722
vn 0.5829 0.7127 0.3902
vn 0.6942 0.7121 0.1046
vn 0.6940 0.4714 0.5442
vn 0.6983 0.6950 -0.1711
vn 0.5773 0.5773 -0.5773
vn 0.1726 0.6965 -0.6965
vn 0.6965 0.1726 -0.6965
vn -0.6171 -0.4595 0.6388
vn -0.5490 -0.6302 -0.5490
vn 0.5490 -0.6302 -0.5490
vn 0.6171 -0.4595 0.6388
usemtl map_tex
s 1
f 22/1/1 25/2/2 4/3/3 1/4/4
f 32/5/5 35/6/6 26/7/7 21/8/8
f 34/9/9 14/10/10 5/11/11 24/12/12
f 2/13/13 6/14/14 16/15/15 11/16/16
f 12/17/17 15/18/18 36/19/19 31/20/20
f 4/21/3 7/22/21 8/23/22 10/24/23
f 5/11/11 9/25/24 8/26/22 7/27/21
f 6/28/14 10/29/23 8/30/22 9/31/24
f 14/10/10 17/32/25 18/33/26 20/34/27
f 15/35/18 19/36/28 18/37/26 17/38/25
f 16/39/15 20/40/27 18/41/26 19/42/28
f 24/12/12 27/43/29 28/44/30 30/45/31
f 25/46/2 29/47/32 28/48/30 27/49/29
f 26/50/7 30/51/31 28/52/30 29/53/32
f 34/9/9 37/54/33 38/55/34 40/56/35
f 35/57/6 39/58/36 38/59/34 37/60/33
f 36/61/19 40/62/35 38/63/34 39/64/36
f 1/65/4 4/66/3 10/67/23 3/68/37
f 3/69/37 10/70/23 6/71/14 2/72/13
f 5/11/11 14/10/10 20/34/27 9/25/24
f 9/31/24 20/40/27 16/39/15 6/28/14
f 15/18/18 12/17/17 13/73/38 19/74/28
f 19/75/28 13/76/38 11/16/16 16/15/15
f 14/10/10 34/9/9 40/56/35 17/32/25
f 17/38/25 40/62/35 36/61/19 15/35/18
f 35/6/6 32/5/5 33/77/39 39/78/36
f 39/79/36 33/80/39 31/20/20 36/19/19
f 34/9/9 24/12/12 30/45/31 37/54/33
f 37/60/33 30/51/31 26/50/7 35/57/6
f 25/81/2 22/82/1 23/83/40 29/84/32
f 29/85/32 23/86/40 21/87/8 26/88/7
f 24/12/12 5/11/11 7/27/21 27/43/29
f 27/49/29 7/22/21 4/21/3 25/46/2
f 11/89/16 13/90/38 12/91/17 31/92/20 33/93/39 32/94/5 21/95/8 23/96/40 22/97/1 1/98/4 3/99/37 2/100/13
